<svg xmlns="http://www.w3.org/2000/svg" viewBox="0 0 240 240" role="img" aria-labelledby="title">
  <title id="title">Akak staff photo placeholder</title>
  <rect width="240" height="240" rx="32" fill="#121212"/>
  <circle cx="120" cy="88" r="44" fill="#ffd6c2"/>
  <path d="M61 220c11-48 38-72 59-72s48 24 59 72" fill="#c8102e"/>
  <path d="M75 83c8-39 37-58 75-42 11 5 19 13 23 25-21-3-48 3-70 17-12 8-22 10-28 0z" fill="#1f2937"/>
  <circle cx="104" cy="91" r="5" fill="#121212"/>
  <circle cx="136" cy="91" r="5" fill="#121212"/>
  <path d="M102 118c11 10 25 10 36 0" fill="none" stroke="#121212" stroke-width="7" stroke-linecap="round"/>
  <text x="120" y="212" text-anchor="middle" font-family="Arial" font-size="30" font-weight="700" fill="#fff">Akak</text>
</svg>
