<svg xmlns="http://www.w3.org/2000/svg" viewBox="0 0 240 240" role="img" aria-labelledby="title">
  <title id="title">Nana staff photo placeholder</title>
  <rect width="240" height="240" rx="32" fill="#fff1f2"/>
  <circle cx="120" cy="88" r="44" fill="#f7c9ad"/>
  <path d="M58 220c11-48 38-73 62-73s51 25 62 73" fill="#c8102e"/>
  <path d="M73 101c0-46 25-72 62-72 25 0 43 13 53 36-26-5-55 8-72 29-10 12-25 15-43 7z" fill="#121212"/>
  <circle cx="104" cy="91" r="5" fill="#121212"/>
  <circle cx="136" cy="91" r="5" fill="#121212"/>
  <path d="M102 118c11 9 25 9 36 0" fill="none" stroke="#121212" stroke-width="7" stroke-linecap="round"/>
  <text x="120" y="212" text-anchor="middle" font-family="Arial" font-size="30" font-weight="700" fill="#fff">Nana</text>
</svg>
